<?xml version="1.0" standalone="no"?>
<!DOCTYPE svg PUBLIC "-//W3C//DTD SVG 20010904//EN"
 "http://www.w3.org/TR/2001/REC-SVG-20010904/DTD/svg10.dtd">
<svg version="1.0" xmlns="http://www.w3.org/2000/svg"
 width="512.000000pt" height="512.000000pt" viewBox="0 0 512.000000 512.000000"
 preserveAspectRatio="xMidYMid meet">

<g transform="translate(0.000000,512.000000) scale(0.100000,-0.100000)"
fill="#000000" stroke="none">
<path d="M1060 4854 c-171 -36 -327 -160 -399 -316 -22 -45 -44 -110 -50 -142
-8 -41 -11 -579 -11 -1751 0 -1864 -4 -1741 63 -1875 21 -43 57 -91 107 -140
126 -127 263 -179 468 -180 l102 0 0 -67 c0 -78 15 -114 51 -126 20 -8 57 4
196 62 95 39 176 71 181 71 6 0 86 -31 178 -70 92 -38 174 -70 181 -70 8 0 25
11 38 25 22 21 25 33 25 100 l0 75 954 0 c592 0 974 4 1007 10 173 32 319 172
358 341 15 65 15 3640 0 3711 -37 172 -183 315 -358 348 -35 6 -567 10 -1540
9 -1234 0 -1497 -3 -1551 -15z m3131 -150 c64 -30 125 -88 157 -148 l27 -51 3
-1442 2 -1443 -1355 0 -1355 0 0 1555 0 1555 1238 -2 1237 -3 46 -21z m187
-3561 l-3 -338 -30 -54 c-17 -31 -51 -71 -78 -93 -91 -71 -41 -68 -1114 -68
l-963 0 0 184 0 184 66 4 c55 3 70 8 85 27 24 30 24 52 -2 85 l-20 26 -548 0
c-608 0 -591 2 -591 -64 0 -48 29 -69 100 -74 l60 -4 0 -185 0 -185 -132 4
c-125 3 -137 6 -202 36 -90 42 -144 87 -191 158 -50 76 -75 158 -75 250 0 207
142 385 343 429 51 11 357 14 1680 14 l1618 1 -3 -337z m-2328 -448 l0 -265
-47 19 c-27 11 -86 35 -133 55 -46 20 -93 36 -103 36 -10 0 -77 -25 -149 -55
-72 -30 -132 -55 -134 -55 -2 0 -4 119 -4 265 l0 265 285 0 285 0 0 -265z"/>
<path d="M2885 4129 c-196 -28 -397 -130 -539 -272 -122 -122 -215 -282 -257
-444 -26 -99 -35 -283 -20 -383 62 -396 371 -722 761 -802 125 -26 326 -21
445 12 337 92 607 369 690 711 9 35 18 116 22 179 12 236 -60 455 -210 645
-209 264 -557 402 -892 354z m334 -155 c99 -24 255 -103 335 -171 126 -106
221 -254 268 -419 29 -102 32 -304 5 -403 -69 -255 -227 -446 -458 -555 -122
-58 -185 -71 -349 -71 -169 0 -234 16 -385 93 -75 38 -107 63 -190 146 -81 82
-109 118 -147 191 -59 113 -87 213 -95 337 -27 428 275 800 702 868 79 12 230
4 314 -16z"/>
<path d="M2640 3397 c-19 -6 -59 -34 -87 -62 -44 -43 -53 -57 -53 -86 0 -43
16 -66 53 -75 24 -5 33 -1 66 35 48 52 88 67 136 51 19 -6 44 -25 56 -41 41
-59 100 -62 124 -6 17 41 5 73 -48 125 -67 65 -158 87 -247 59z"/>
<path d="M3244 3394 c-82 -29 -154 -126 -134 -178 21 -57 83 -58 126 -1 36 47
87 62 137 41 20 -8 42 -26 48 -40 16 -34 60 -52 91 -35 31 16 38 28 38 67 0
27 -10 43 -52 85 -76 75 -158 95 -254 61z"/>
<path d="M2610 2970 c-30 -30 -24 -63 19 -118 46 -57 137 -121 219 -153 71
-27 211 -37 291 -19 81 18 183 75 247 137 76 75 89 117 48 158 -32 31 -68 18
-135 -48 -101 -99 -206 -135 -332 -115 -85 13 -143 44 -217 115 -71 69 -104
79 -140 43z"/>
</g>
</svg>
