<svg id="svg" version="1.1" xmlns="http://www.w3.org/2000/svg" xmlns:xlink="http://www.w3.org/1999/xlink" width="400" height="400" viewBox="0, 0, 400,400"><g id="svgg"><path id="path0" d="M88.304 31.029 C 88.178 31.156,87.113 31.415,85.937 31.607 C 82.253 32.207,81.496 32.446,77.724 34.209 C 70.490 37.589,64.558 43.447,61.361 50.369 C 60.794 51.596,60.166 52.913,59.965 53.295 C 59.764 53.677,59.600 54.316,59.600 54.715 C 59.600 55.114,59.438 55.611,59.241 55.820 C 58.360 56.752,58.274 66.047,58.139 174.328 L 57.997 288.856 59.899 286.909 C 63.981 282.730,73.934 276.423,76.476 276.405 C 76.848 276.402,77.251 276.241,77.371 276.046 C 77.492 275.851,78.087 275.593,78.695 275.471 C 79.303 275.349,80.610 275.042,81.600 274.788 C 85.366 273.822,89.853 273.535,104.100 273.348 L 118.800 273.155 118.800 151.977 L 118.800 30.800 103.667 30.800 C 95.343 30.800,88.430 30.903,88.304 31.029 M130.599 152.000 L 130.600 273.400 236.300 273.401 L 342.000 273.402 236.401 273.300 L 130.801 273.199 130.700 151.899 L 130.598 30.600 130.599 152.000 M320.800 31.192 C 320.800 31.417,321.370 31.600,322.067 31.600 C 323.523 31.600,323.470 31.425,321.900 31.049 C 321.247 30.892,320.800 30.950,320.800 31.192 M326.800 32.565 C 326.800 32.662,327.745 33.204,328.900 33.770 C 330.916 34.758,331.812 35.418,334.730 38.067 C 335.461 38.730,336.145 39.188,336.249 39.084 C 336.452 38.882,333.039 35.918,330.923 34.459 C 329.594 33.542,326.800 32.259,326.800 32.565 M337.268 40.952 C 337.781 41.743,338.347 42.392,338.527 42.395 C 338.899 42.401,337.382 40.159,336.749 39.769 C 336.522 39.628,336.755 40.160,337.268 40.952 M341.206 49.876 C 341.203 50.358,341.380 50.864,341.600 51.000 C 342.109 51.315,342.109 50.388,341.600 49.600 C 341.285 49.112,341.211 49.164,341.206 49.876 M227.200 76.800 L 225.000 77.070 227.200 77.112 C 228.410 77.135,230.120 77.005,231.000 76.823 L 232.600 76.492 231.000 76.511 C 230.120 76.522,228.410 76.652,227.200 76.800 M241.400 76.786 C 242.594 77.104,247.885 77.333,247.567 77.053 C 247.475 76.972,245.780 76.807,243.800 76.686 C 241.705 76.558,240.702 76.599,241.400 76.786 M222.600 77.451 C 218.327 78.297,217.266 78.527,216.400 78.796 C 215.850 78.967,214.590 79.339,213.600 79.623 C 212.610 79.907,211.629 80.288,211.420 80.470 C 211.211 80.651,210.626 80.800,210.120 80.800 C 209.614 80.800,209.200 80.967,209.200 81.172 C 209.200 81.547,209.710 81.436,213.200 80.301 C 214.190 79.979,215.810 79.497,216.800 79.231 C 217.790 78.964,219.153 78.578,219.828 78.373 C 220.504 78.168,221.584 77.997,222.228 77.994 C 222.873 77.991,223.670 77.813,224.000 77.600 C 224.667 77.169,224.249 77.125,222.600 77.451 M248.115 77.449 C 248.272 77.606,249.346 77.881,250.500 78.060 C 252.539 78.377,254.199 78.736,257.297 79.531 C 258.138 79.746,258.698 79.758,258.574 79.557 C 258.452 79.361,258.061 79.200,257.705 79.200 C 257.348 79.200,256.504 79.032,255.828 78.827 C 252.229 77.735,247.568 76.902,248.115 77.449 M260.000 80.386 C 260.550 80.561,261.968 81.092,263.152 81.567 C 264.336 82.041,265.396 82.337,265.509 82.224 C 265.622 82.111,265.374 81.908,264.957 81.773 C 263.974 81.454,262.383 80.800,261.505 80.353 C 261.123 80.159,260.403 80.015,259.905 80.034 C 259.033 80.068,259.037 80.080,260.000 80.386 M206.229 82.416 C 205.364 82.847,204.419 83.200,204.129 83.200 C 203.838 83.200,203.600 83.376,203.600 83.590 C 203.600 84.012,204.233 83.810,207.200 82.446 C 208.190 81.990,208.730 81.621,208.400 81.625 C 208.070 81.629,207.093 81.985,206.229 82.416 M267.338 83.247 C 268.184 83.693,268.960 83.974,269.063 83.871 C 269.289 83.644,266.857 82.393,266.239 82.418 C 265.997 82.427,266.492 82.800,267.338 83.247 M269.600 84.156 C 269.600 84.279,270.140 84.659,270.800 85.000 C 271.460 85.341,272.000 85.457,272.000 85.257 C 272.000 85.057,271.685 84.782,271.300 84.646 C 270.915 84.511,270.375 84.295,270.100 84.166 C 269.825 84.038,269.600 84.034,269.600 84.156 M198.500 86.144 C 198.005 86.389,197.600 86.727,197.600 86.895 C 197.600 87.396,198.140 87.229,199.200 86.400 C 200.282 85.554,199.943 85.429,198.500 86.144 M274.794 87.182 C 275.341 87.602,275.868 87.866,275.965 87.769 C 276.191 87.542,274.729 86.427,274.200 86.422 C 273.980 86.420,274.247 86.761,274.794 87.182 M279.200 89.904 C 279.200 90.071,279.560 90.432,280.000 90.707 C 280.930 91.288,281.054 90.997,280.229 90.171 C 279.598 89.541,279.200 89.437,279.200 89.904 M190.100 91.798 C 189.357 92.642,189.494 92.873,190.400 92.307 C 190.840 92.032,191.200 91.671,191.200 91.504 C 191.200 91.027,190.649 91.175,190.100 91.798 M282.400 92.304 C 282.400 92.471,282.760 92.832,283.200 93.107 C 284.130 93.688,284.254 93.397,283.429 92.571 C 282.798 91.941,282.400 91.837,282.400 92.304 M187.200 94.245 C 184.559 96.305,181.061 99.815,178.475 103.000 C 177.225 104.540,176.027 105.925,175.812 106.078 C 175.598 106.231,175.553 106.486,175.712 106.645 C 175.870 106.804,176.047 106.858,176.104 106.767 C 177.801 104.051,182.704 98.804,187.800 94.249 C 189.836 92.428,189.531 92.427,187.200 94.245 M286.744 95.895 C 288.143 97.197,290.369 99.419,291.691 100.831 C 293.157 102.398,293.731 102.854,293.163 102.000 C 292.115 100.422,288.214 96.578,285.800 94.744 C 284.920 94.075,285.345 94.593,286.744 95.895 M295.624 105.500 C 296.154 106.105,296.726 106.771,296.894 106.980 C 297.087 107.220,297.200 107.220,297.200 106.980 C 297.199 106.488,295.406 104.400,294.984 104.400 C 294.806 104.400,295.094 104.895,295.624 105.500 M297.600 107.893 C 297.600 108.085,298.122 108.953,298.761 109.821 C 300.841 112.651,304.451 119.179,305.585 122.161 C 305.826 122.794,306.120 123.213,306.239 123.094 C 306.521 122.812,302.990 115.491,301.529 113.328 C 300.908 112.408,300.400 111.463,300.400 111.228 C 300.400 110.993,300.250 110.800,300.068 110.800 C 299.885 110.800,299.480 110.305,299.168 109.700 C 298.513 108.432,297.600 107.379,297.600 107.893 M173.693 109.200 C 173.418 109.640,173.331 110.000,173.500 110.000 C 173.669 110.000,174.032 109.640,174.307 109.200 C 174.582 108.760,174.669 108.400,174.500 108.400 C 174.331 108.400,173.968 108.760,173.693 109.200 M171.671 112.243 C 171.161 113.031,170.819 113.753,170.913 113.846 C 171.006 113.940,171.562 113.293,172.147 112.408 C 172.732 111.524,173.074 110.802,172.906 110.805 C 172.738 110.808,172.182 111.455,171.671 112.243 M169.704 115.474 C 169.001 116.988,169.410 117.128,170.181 115.637 C 170.533 114.957,170.681 114.401,170.510 114.403 C 170.340 114.405,169.977 114.887,169.704 115.474 M165.680 124.049 C 164.979 126.296,165.281 126.394,166.100 124.186 C 166.464 123.204,166.634 122.400,166.478 122.400 C 166.322 122.400,165.963 123.142,165.680 124.049 M307.200 126.553 C 307.200 126.883,307.380 127.264,307.600 127.400 C 307.820 127.536,308.000 127.377,308.000 127.047 C 308.000 126.717,307.820 126.336,307.600 126.200 C 307.380 126.064,307.200 126.223,307.200 126.553 M164.667 126.667 C 164.520 126.813,164.411 127.308,164.425 127.767 C 164.449 128.533,164.482 128.523,164.834 127.642 C 165.226 126.663,165.144 126.189,164.667 126.667 M163.600 129.976 C 163.600 130.623,163.440 131.252,163.244 131.373 C 163.049 131.494,162.786 132.179,162.661 132.896 C 161.968 136.866,161.691 138.260,161.490 138.800 C 161.164 139.672,160.717 145.016,160.993 144.740 C 161.122 144.611,161.399 143.177,161.610 141.553 C 162.080 137.924,162.504 135.868,163.931 130.300 C 164.152 129.438,164.164 128.800,163.958 128.800 C 163.761 128.800,163.600 129.329,163.600 129.976 M310.406 138.476 C 310.418 139.481,311.187 140.308,311.194 139.324 C 311.197 138.842,311.020 138.336,310.800 138.200 C 310.580 138.064,310.403 138.188,310.406 138.476 M311.451 145.300 C 311.808 147.630,312.000 147.688,312.000 145.467 C 312.000 144.440,311.818 143.600,311.595 143.600 C 311.345 143.600,311.290 144.249,311.451 145.300 M160.565 152.200 C 160.566 156.160,160.626 157.726,160.698 155.680 C 160.771 153.634,160.771 150.394,160.698 148.480 C 160.624 146.566,160.565 148.240,160.565 152.200 M311.664 157.800 C 311.623 158.460,311.477 159.450,311.340 160.000 C 311.149 160.766,311.204 160.896,311.571 160.554 C 311.857 160.289,311.988 159.398,311.896 158.354 C 311.790 157.167,311.715 156.988,311.664 157.800 M161.074 162.453 C 161.203 164.074,161.465 165.703,161.655 166.074 C 161.845 166.444,162.000 167.379,162.000 168.150 C 162.000 168.922,162.180 169.664,162.400 169.800 C 162.620 169.936,162.800 170.566,162.800 171.200 C 162.800 171.834,162.955 172.449,163.144 172.566 C 163.334 172.683,163.324 172.018,163.122 171.089 C 162.921 170.160,162.583 168.590,162.370 167.600 C 162.158 166.610,161.831 164.488,161.644 162.885 C 161.193 159.025,160.775 158.708,161.074 162.453 M310.708 164.783 C 310.431 165.767,310.597 166.337,311.032 165.901 C 311.160 165.773,311.201 165.248,311.124 164.734 L 310.984 163.800 310.708 164.783 M163.600 174.110 C 163.600 174.683,163.787 175.268,164.016 175.410 C 164.289 175.579,164.338 175.277,164.160 174.534 C 163.792 173.001,163.600 172.856,163.600 174.110 M164.428 176.676 C 164.413 177.158,164.580 177.664,164.800 177.800 C 165.273 178.092,165.273 177.701,164.800 176.600 C 164.469 175.829,164.455 175.831,164.428 176.676 M306.196 180.691 C 305.800 181.741,304.535 184.445,303.384 186.700 C 302.234 188.955,301.406 190.799,301.546 190.797 C 301.686 190.795,301.999 190.390,302.241 189.897 C 302.484 189.404,303.209 188.010,303.853 186.800 C 305.421 183.850,307.350 179.216,307.109 178.976 C 307.003 178.869,306.592 179.641,306.196 180.691 M166.800 182.626 C 166.800 183.249,169.386 188.379,169.705 188.390 C 169.873 188.395,169.357 187.095,168.558 185.500 C 167.007 182.402,166.800 182.063,166.800 182.626 M300.432 191.939 C 299.779 193.160,299.914 193.500,300.641 192.463 C 300.993 191.960,301.188 191.454,301.073 191.340 C 300.959 191.225,300.670 191.495,300.432 191.939 M172.422 193.000 C 172.427 193.529,173.542 194.991,173.769 194.765 C 173.866 194.668,173.602 194.141,173.182 193.594 C 172.761 193.047,172.420 192.780,172.422 193.000 M298.673 194.545 C 297.913 195.705,298.116 195.941,299.061 194.996 C 299.393 194.664,299.597 194.190,299.514 193.942 C 299.431 193.694,299.053 193.965,298.673 194.545 M296.683 197.400 C 295.367 199.049,295.676 199.300,297.053 197.700 C 297.867 196.753,298.243 196.000,297.900 196.000 C 297.845 196.000,297.297 196.630,296.683 197.400 M176.488 198.894 C 176.990 199.605,178.241 201.090,179.269 202.194 C 180.297 203.297,181.473 204.560,181.881 205.000 C 182.290 205.440,183.240 206.340,183.993 207.000 C 184.745 207.660,183.599 206.310,181.446 204.000 C 179.292 201.690,177.237 199.305,176.879 198.700 C 176.521 198.095,176.081 197.600,175.902 197.600 C 175.723 197.600,175.986 198.182,176.488 198.894 M293.830 200.990 C 293.014 201.985,292.496 202.800,292.678 202.800 C 292.861 202.800,293.368 202.320,293.805 201.734 C 294.242 201.148,294.846 200.419,295.148 200.115 C 295.449 199.811,295.609 199.476,295.504 199.371 C 295.399 199.266,294.646 199.994,293.830 200.990 M289.260 205.851 C 288.743 206.402,288.396 206.929,288.489 207.022 C 288.582 207.115,289.174 206.654,289.804 205.996 C 290.434 205.338,290.781 204.811,290.575 204.824 C 290.369 204.838,289.777 205.300,289.260 205.851 M284.796 210.071 C 283.588 211.178,283.140 211.715,283.800 211.265 C 285.508 210.099,287.359 208.426,287.160 208.227 C 287.067 208.134,286.003 208.964,284.796 210.071 M187.200 209.804 C 187.200 210.209,189.300 211.999,189.775 212.000 C 189.982 212.000,189.800 211.685,189.370 211.300 C 187.910 209.991,187.200 209.501,187.200 209.804 M280.600 213.248 C 276.911 216.076,266.314 221.990,264.924 221.997 C 264.662 221.999,264.335 222.182,264.197 222.405 C 263.957 222.793,265.889 222.117,269.500 220.549 C 270.435 220.143,271.200 219.674,271.200 219.506 C 271.200 219.338,271.560 219.200,272.000 219.200 C 272.440 219.200,272.800 219.041,272.800 218.847 C 272.800 218.652,273.115 218.393,273.500 218.271 C 274.334 218.007,276.367 216.792,277.090 216.126 C 277.373 215.866,277.964 215.538,278.402 215.399 C 278.841 215.260,279.200 215.021,279.200 214.867 C 279.200 214.714,279.920 214.144,280.800 213.600 C 281.680 213.056,282.400 212.474,282.400 212.306 C 282.400 211.874,282.378 211.886,280.600 213.248 M191.200 213.095 C 191.200 213.484,192.814 214.519,193.051 214.282 C 193.147 214.186,192.769 213.810,192.212 213.445 C 191.656 213.080,191.200 212.922,191.200 213.095 M194.836 215.766 C 199.376 218.851,209.378 223.659,208.584 222.374 C 208.457 222.168,208.091 222.000,207.771 222.000 C 207.451 222.000,206.877 221.831,206.495 221.625 C 206.113 221.419,204.280 220.500,202.423 219.583 C 200.566 218.666,197.937 217.215,196.580 216.358 C 193.896 214.663,192.530 214.199,194.836 215.766 M261.800 223.200 C 261.485 223.709,262.412 223.709,263.200 223.200 C 263.688 222.885,263.636 222.811,262.924 222.806 C 262.442 222.803,261.936 222.980,261.800 223.200 M259.400 224.000 C 259.264 224.220,259.423 224.400,259.753 224.400 C 260.083 224.400,260.464 224.220,260.600 224.000 C 260.736 223.780,260.577 223.600,260.247 223.600 C 259.917 223.600,259.536 223.780,259.400 224.000 M217.600 225.600 C 217.600 225.820,218.005 225.997,218.500 225.994 C 219.228 225.989,219.285 225.914,218.800 225.600 C 218.024 225.099,217.600 225.099,217.600 225.600 M221.000 226.400 C 221.136 226.620,221.642 226.797,222.124 226.794 C 222.836 226.789,222.888 226.715,222.400 226.400 C 221.612 225.891,220.685 225.891,221.000 226.400 M250.400 226.400 C 249.915 226.714,249.972 226.789,250.700 226.794 C 251.195 226.797,251.600 226.620,251.600 226.400 C 251.600 225.899,251.176 225.899,250.400 226.400 M225.800 227.200 C 225.936 227.420,226.532 227.587,227.124 227.572 C 228.085 227.547,228.114 227.507,227.400 227.200 C 226.289 226.722,225.505 226.722,225.800 227.200 M245.000 227.200 C 244.326 227.490,244.400 227.548,245.476 227.572 C 246.178 227.587,246.864 227.420,247.000 227.200 C 247.296 226.720,246.116 226.720,245.000 227.200 " stroke="none" fill="#8c7fd6" fill-rule="evenodd"></path><path id="path1" d="M230.000 88.033 C 195.721 92.443,172.000 118.767,172.000 152.398 C 172.000 157.874,172.159 159.493,173.261 165.200 C 175.745 178.072,183.824 191.938,193.881 200.592 C 199.376 205.319,211.288 212.400,213.747 212.400 C 214.080 212.400,214.464 212.580,214.600 212.800 C 214.736 213.020,215.251 213.200,215.744 213.200 C 216.237 213.200,216.811 213.349,217.020 213.531 C 217.417 213.876,223.289 215.269,227.367 215.985 C 230.420 216.521,241.969 216.522,245.033 215.987 C 255.907 214.087,261.820 211.914,270.481 206.634 C 281.620 199.844,292.121 187.098,296.380 175.200 C 296.655 174.430,297.028 173.440,297.207 173.000 C 297.386 172.560,297.650 171.750,297.794 171.200 C 297.937 170.650,298.235 169.570,298.457 168.800 C 301.989 156.536,301.231 141.749,296.417 129.000 C 286.436 102.566,257.202 84.534,230.000 88.033 M217.949 134.415 C 226.882 137.347,232.737 146.082,228.637 150.361 C 225.823 153.299,221.983 152.612,219.604 148.744 C 216.308 143.388,209.499 143.487,205.230 148.953 C 199.747 155.974,191.821 150.258,196.423 142.602 C 200.750 135.405,210.115 131.843,217.949 134.415 M265.519 134.405 C 274.841 137.465,280.584 146.696,275.741 150.835 C 272.902 153.261,269.720 152.510,267.216 148.824 C 263.495 143.344,257.152 143.407,252.827 148.966 C 247.061 156.376,239.221 150.061,244.345 142.134 C 248.871 135.131,257.801 131.871,265.519 134.405 M209.226 166.401 C 210.260 166.688,211.559 167.786,213.956 170.400 C 226.805 184.411,247.252 184.304,258.876 170.166 C 261.559 166.903,262.672 166.186,264.978 166.236 C 267.610 166.294,270.400 168.945,270.400 171.388 C 270.400 174.449,262.678 182.871,257.000 186.003 C 256.120 186.488,255.220 187.014,255.000 187.170 C 250.406 190.444,236.552 192.628,229.457 191.195 C 214.073 188.089,198.606 174.714,203.274 168.554 C 203.755 167.919,204.192 167.338,204.245 167.263 C 204.344 167.122,207.244 166.047,207.600 166.020 C 207.710 166.011,208.442 166.183,209.226 166.401 M116.000 345.600 C 116.000 359.115,116.137 366.000,116.405 366.000 C 116.628 366.000,117.123 365.840,117.505 365.644 C 118.455 365.157,121.998 363.577,123.100 363.149 C 123.595 362.957,124.405 362.620,124.900 362.400 C 127.208 361.373,133.048 359.200,133.497 359.200 C 133.774 359.200,134.000 359.020,134.000 358.800 C 134.000 358.580,134.450 358.400,135.000 358.400 C 135.550 358.400,136.000 358.220,136.000 358.000 C 136.000 357.780,136.900 357.600,138.000 357.600 C 139.100 357.600,140.000 357.780,140.000 358.000 C 140.000 358.220,140.362 358.400,140.805 358.400 C 141.248 358.400,141.923 358.565,142.305 358.766 C 143.410 359.349,145.586 360.256,148.509 361.354 C 149.998 361.913,151.888 362.666,152.709 363.026 C 153.529 363.387,154.650 363.864,155.200 364.087 C 155.750 364.311,156.513 364.652,156.895 364.847 C 157.277 365.041,157.862 365.200,158.195 365.200 C 158.528 365.200,158.800 365.380,158.800 365.600 C 158.800 365.820,159.070 366.000,159.400 366.000 C 159.925 366.000,160.000 363.467,160.000 345.600 L 160.000 325.200 138.000 325.200 L 116.000 325.200 116.000 345.600 " stroke="none" fill="#f7ce33" fill-rule="evenodd"></path><path id="path2" d="M84.800 19.600 C 84.800 19.820,83.900 20.000,82.800 20.000 C 81.700 20.000,80.800 20.180,80.800 20.400 C 80.800 20.620,80.080 20.800,79.200 20.800 C 78.320 20.800,77.600 20.980,77.600 21.200 C 77.600 21.420,77.150 21.600,76.600 21.600 C 76.050 21.600,75.600 21.780,75.600 22.000 C 75.600 22.220,75.240 22.400,74.800 22.400 C 74.360 22.400,74.000 22.580,74.000 22.800 C 74.000 23.020,73.640 23.200,73.200 23.200 C 72.760 23.200,72.400 23.380,72.400 23.600 C 72.400 23.820,72.144 24.000,71.832 24.000 C 71.066 24.000,65.944 26.623,64.975 27.512 C 64.549 27.902,63.570 28.657,62.800 29.189 C 62.030 29.721,60.770 30.866,60.000 31.732 C 59.230 32.599,58.015 33.908,57.300 34.641 C 56.585 35.374,56.000 36.177,56.000 36.426 C 56.000 36.675,55.460 37.383,54.800 38.000 C 54.140 38.617,53.600 39.409,53.600 39.760 C 53.600 40.112,53.420 40.400,53.200 40.400 C 52.980 40.400,52.800 40.720,52.800 41.112 C 52.800 41.503,52.440 42.083,52.000 42.400 C 51.560 42.717,51.200 43.297,51.200 43.688 C 51.200 44.080,51.020 44.400,50.800 44.400 C 50.580 44.400,50.400 44.760,50.400 45.200 C 50.400 45.640,50.220 46.000,50.000 46.000 C 49.780 46.000,49.600 46.450,49.600 47.000 C 49.600 47.550,49.420 48.000,49.200 48.000 C 48.980 48.000,48.800 48.540,48.800 49.200 C 48.800 49.860,48.620 50.400,48.400 50.400 C 48.180 50.400,48.000 50.940,48.000 51.600 C 48.000 52.260,47.820 52.800,47.600 52.800 C 47.380 52.800,47.200 53.484,47.200 54.320 C 47.200 55.156,47.032 56.011,46.827 56.220 C 45.453 57.618,45.455 329.200,46.829 329.200 C 47.033 329.200,47.200 329.920,47.200 330.800 C 47.200 331.680,47.380 332.400,47.600 332.400 C 47.820 332.400,48.000 332.940,48.000 333.600 C 48.000 334.260,48.180 334.800,48.400 334.800 C 48.620 334.800,48.800 335.135,48.800 335.544 C 48.800 336.193,51.048 341.058,51.598 341.600 C 51.710 341.710,52.056 342.295,52.368 342.900 C 52.680 343.505,53.085 344.000,53.268 344.000 C 53.450 344.000,53.600 344.288,53.600 344.640 C 53.600 344.991,54.140 345.783,54.800 346.400 C 55.460 347.017,56.000 347.729,56.000 347.983 C 56.000 349.203,63.765 356.136,67.099 357.893 C 68.254 358.502,69.199 359.135,69.199 359.300 C 69.200 359.465,69.560 359.600,70.000 359.600 C 70.440 359.600,70.800 359.780,70.800 360.000 C 70.800 360.220,71.160 360.400,71.600 360.400 C 72.040 360.400,72.400 360.580,72.400 360.800 C 72.400 361.020,72.760 361.200,73.200 361.200 C 73.640 361.200,74.000 361.380,74.000 361.600 C 74.000 361.820,74.450 362.000,75.000 362.000 C 75.550 362.000,76.000 362.180,76.000 362.400 C 76.000 362.620,76.450 362.800,77.000 362.800 C 77.550 362.800,78.000 362.980,78.000 363.200 C 78.000 363.420,78.630 363.600,79.400 363.600 C 80.170 363.600,80.800 363.780,80.800 364.000 C 80.800 364.220,81.700 364.400,82.800 364.400 C 83.900 364.400,84.800 364.580,84.800 364.800 C 84.800 365.056,88.333 365.200,94.600 365.200 L 104.400 365.200 104.400 371.400 C 104.400 375.267,104.551 377.600,104.800 377.600 C 105.020 377.600,105.200 377.883,105.200 378.229 C 105.200 379.037,106.163 380.000,106.971 380.000 C 107.317 380.000,107.600 380.180,107.600 380.400 C 107.600 380.631,108.867 380.800,110.600 380.800 C 112.333 380.800,113.600 380.631,113.600 380.400 C 113.600 380.180,113.960 380.000,114.400 380.000 C 114.840 380.000,115.200 379.820,115.200 379.600 C 115.200 379.380,115.639 379.200,116.176 379.200 C 116.713 379.200,117.264 379.020,117.400 378.800 C 117.536 378.580,117.997 378.400,118.424 378.400 C 118.851 378.400,119.200 378.220,119.200 378.000 C 119.200 377.780,119.472 377.600,119.805 377.600 C 120.138 377.600,120.723 377.440,121.105 377.244 C 122.642 376.456,125.447 375.257,126.200 375.066 C 127.720 374.680,131.801 373.101,132.180 372.751 C 132.389 372.558,132.884 372.400,133.280 372.400 C 133.676 372.400,134.000 372.220,134.000 372.000 C 134.000 371.780,134.414 371.600,134.920 371.600 C 135.426 371.600,136.041 371.399,136.288 371.152 C 136.852 370.588,140.136 370.607,140.325 371.176 C 140.403 371.409,140.812 371.600,141.233 371.600 C 141.655 371.600,142.000 371.780,142.000 372.000 C 142.000 372.220,142.329 372.400,142.732 372.400 C 143.135 372.400,144.336 372.841,145.402 373.381 C 146.468 373.920,148.208 374.584,149.270 374.857 C 150.331 375.129,151.200 375.497,151.200 375.676 C 151.200 375.854,151.639 376.000,152.176 376.000 C 152.713 376.000,153.264 376.180,153.400 376.400 C 153.536 376.620,153.997 376.800,154.424 376.800 C 154.851 376.800,155.200 376.980,155.200 377.200 C 155.200 377.420,155.560 377.600,156.000 377.600 C 156.440 377.600,156.800 377.780,156.800 378.000 C 156.800 378.220,157.155 378.400,157.588 378.400 C 158.021 378.400,159.017 378.760,159.800 379.200 C 160.583 379.640,161.579 380.000,162.012 380.000 C 162.445 380.000,162.800 380.180,162.800 380.400 C 162.800 381.609,168.625 380.817,170.174 379.398 L 171.705 377.996 171.909 371.598 L 172.113 365.200 248.657 365.200 C 299.419 365.200,325.200 365.065,325.200 364.800 C 325.200 364.580,325.920 364.400,326.800 364.400 C 327.680 364.400,328.400 364.220,328.400 364.000 C 328.400 363.780,328.940 363.600,329.600 363.600 C 330.260 363.600,330.800 363.420,330.800 363.200 C 330.800 362.980,331.250 362.800,331.800 362.800 C 332.350 362.800,332.800 362.620,332.800 362.400 C 332.800 362.180,333.034 362.000,333.320 362.000 C 334.056 362.000,335.993 361.059,335.997 360.700 C 335.999 360.535,336.270 360.400,336.600 360.400 C 336.930 360.400,337.200 360.220,337.200 360.000 C 337.200 359.780,337.520 359.600,337.912 359.600 C 338.303 359.600,338.883 359.240,339.200 358.800 C 339.517 358.360,339.924 358.000,340.105 358.000 C 340.829 358.000,346.400 352.560,346.400 351.853 C 346.400 351.591,346.760 351.117,347.200 350.800 C 347.640 350.483,348.000 349.943,348.000 349.600 C 348.000 349.257,348.360 348.717,348.800 348.400 C 349.240 348.083,349.600 347.503,349.600 347.112 C 349.600 346.720,349.780 346.400,350.000 346.400 C 350.220 346.400,350.400 346.040,350.400 345.600 C 350.400 345.160,350.580 344.800,350.800 344.800 C 351.020 344.800,351.200 344.361,351.200 343.824 C 351.200 343.287,351.380 342.736,351.600 342.600 C 351.820 342.464,352.000 342.003,352.000 341.576 C 352.000 341.149,352.180 340.800,352.400 340.800 C 352.620 340.800,352.800 340.181,352.800 339.424 C 352.800 338.667,352.980 337.936,353.200 337.800 C 353.420 337.664,353.600 336.134,353.600 334.400 C 353.600 332.666,353.780 331.136,354.000 331.000 C 354.555 330.657,354.555 54.543,354.000 54.200 C 353.780 54.064,353.600 52.444,353.600 50.600 C 353.600 48.756,353.420 47.136,353.200 47.000 C 352.980 46.864,352.800 46.144,352.800 45.400 C 352.800 44.656,352.620 43.936,352.400 43.800 C 352.180 43.664,352.000 43.203,352.000 42.776 C 352.000 42.349,351.820 42.000,351.600 42.000 C 351.380 42.000,351.200 41.460,351.200 40.800 C 351.200 40.140,351.020 39.600,350.800 39.600 C 350.580 39.600,350.400 39.240,350.400 38.800 C 350.400 38.360,350.220 38.000,350.000 38.000 C 349.780 38.000,349.600 37.680,349.600 37.288 C 349.600 36.897,349.240 36.317,348.800 36.000 C 348.360 35.683,348.000 35.191,348.000 34.908 C 348.000 34.625,347.460 33.828,346.800 33.137 C 346.140 32.446,345.600 31.716,345.600 31.515 C 345.600 31.010,342.072 27.620,340.277 26.400 C 339.467 25.850,338.804 25.265,338.803 25.100 C 338.801 24.935,338.440 24.800,338.000 24.800 C 337.560 24.800,337.200 24.654,337.200 24.475 C 337.200 24.296,336.570 23.902,335.800 23.600 C 335.030 23.298,334.400 22.904,334.400 22.725 C 334.400 22.546,334.051 22.400,333.624 22.400 C 333.197 22.400,332.736 22.220,332.600 22.000 C 332.464 21.780,332.003 21.600,331.576 21.600 C 331.149 21.600,330.800 21.420,330.800 21.200 C 330.800 20.980,330.260 20.800,329.600 20.800 C 328.940 20.800,328.400 20.620,328.400 20.400 C 328.400 20.180,327.601 20.000,326.624 20.000 C 325.647 20.000,324.736 19.820,324.600 19.600 C 324.436 19.335,283.996 19.200,204.576 19.200 C 124.992 19.200,84.800 19.334,84.800 19.600 M119.400 152.200 L 119.400 273.800 102.600 274.053 C 78.378 274.417,71.613 276.490,60.625 286.918 C 59.318 288.158,58.009 289.264,57.716 289.377 C 57.272 289.547,57.201 270.326,57.294 174.891 L 57.406 60.200 58.355 56.800 C 61.592 45.206,68.483 37.492,80.200 32.347 C 84.047 30.658,86.532 30.462,103.200 30.532 L 119.400 30.600 119.400 152.200 M323.754 30.844 C 332.397 33.175,338.489 38.899,341.688 47.693 L 342.600 50.200 342.713 161.200 C 342.775 222.250,342.726 272.605,342.605 273.100 L 342.385 274.000 236.235 274.000 C 139.810 274.000,130.063 273.942,129.843 273.367 C 129.510 272.499,129.534 31.000,129.867 30.667 C 130.356 30.178,321.933 30.353,323.754 30.844 M227.600 77.643 C 194.905 81.344,167.965 106.848,162.406 139.363 C 159.674 155.348,162.530 173.959,169.671 186.700 C 171.668 190.262,172.190 191.119,174.085 193.947 C 202.386 236.179,265.385 238.347,295.503 198.127 C 296.297 197.067,297.453 195.536,298.073 194.723 C 298.693 193.911,299.200 193.134,299.200 192.996 C 299.200 192.857,299.717 191.992,300.348 191.072 C 304.514 185.004,308.671 173.719,310.467 163.600 C 311.170 159.642,311.174 144.407,310.473 140.600 C 302.976 99.861,267.749 73.099,227.600 77.643 M249.200 88.754 C 252.768 89.526,257.189 90.799,259.000 91.575 C 259.440 91.764,260.520 92.222,261.400 92.594 C 276.504 98.969,289.667 112.176,295.901 127.211 C 298.137 132.605,299.134 136.193,300.387 143.367 C 300.895 146.276,300.931 157.658,300.441 160.280 C 300.243 161.336,299.861 163.460,299.591 165.000 C 295.484 188.403,275.299 209.402,251.600 214.926 C 245.153 216.428,243.621 216.594,236.200 216.586 C 227.192 216.577,223.878 216.053,215.629 213.334 C 175.844 200.220,159.074 152.001,182.125 117.000 C 192.896 100.645,208.140 91.088,228.600 87.860 C 231.804 87.355,245.474 87.948,249.200 88.754 M208.985 134.177 C 198.888 136.189,191.458 147.064,197.480 151.017 C 199.664 152.451,202.308 152.042,203.972 150.013 C 209.802 142.904,215.972 142.482,219.951 148.921 C 222.891 153.677,229.600 152.313,229.600 146.959 C 229.600 139.201,218.453 132.290,208.985 134.177 M256.569 134.158 C 249.834 135.489,242.800 141.990,242.800 146.885 C 242.800 151.630,249.008 153.549,251.894 149.696 C 256.948 142.949,263.216 142.608,267.497 148.846 C 271.910 155.276,280.183 150.107,276.337 143.323 C 272.431 136.433,264.252 132.641,256.569 134.158 M205.109 167.098 C 201.572 169.291,201.804 172.655,205.816 177.323 C 222.644 196.903,254.253 195.729,268.687 174.986 C 271.387 171.107,269.103 166.406,264.517 166.401 C 262.686 166.400,262.865 166.258,257.108 172.282 C 245.207 184.735,227.083 184.087,213.925 170.737 C 209.230 165.974,207.844 165.402,205.109 167.098 M342.600 309.200 C 342.600 335.296,342.600 335.296,340.663 339.600 C 337.739 346.096,332.665 350.579,325.200 353.261 L 322.600 354.195 247.255 354.309 C 190.827 354.395,171.771 354.308,171.355 353.963 C 170.747 353.458,170.510 325.868,171.106 324.945 C 171.288 324.662,173.151 324.434,176.000 324.344 C 183.568 324.106,186.719 319.621,182.142 315.603 L 180.772 314.400 138.366 314.400 C 92.340 314.400,94.547 314.295,93.059 316.565 C 92.175 317.915,92.203 321.146,93.109 322.217 C 94.620 324.004,95.195 324.182,100.153 324.393 L 105.000 324.600 105.105 339.291 L 105.210 353.982 104.135 354.252 C 102.293 354.714,87.203 354.096,84.800 353.460 C 77.419 351.506,72.394 348.667,67.545 343.713 C 63.721 339.805,59.200 332.492,59.200 330.214 C 59.200 329.902,59.040 329.548,58.844 329.427 C 57.015 328.297,56.991 313.664,58.810 309.000 C 58.982 308.560,59.537 307.120,60.044 305.800 C 60.885 303.611,62.807 300.096,63.800 298.930 C 64.020 298.672,64.909 297.592,65.776 296.530 C 69.407 292.083,74.776 288.431,80.788 286.319 C 86.289 284.387,79.982 284.470,215.400 284.537 L 342.600 284.600 342.600 309.200 M160.304 345.700 C 160.376 360.407,160.278 366.800,159.982 366.800 C 159.748 366.800,158.801 366.456,157.878 366.036 C 156.955 365.616,154.400 364.546,152.200 363.658 C 150.000 362.771,146.220 361.226,143.800 360.226 C 141.380 359.226,138.807 358.406,138.081 358.404 C 136.814 358.400,127.548 361.964,119.544 365.535 C 118.523 365.990,117.218 366.481,116.644 366.625 L 115.600 366.887 115.600 345.910 C 115.600 334.373,115.722 324.812,115.870 324.663 C 116.019 324.515,126.054 324.440,138.170 324.497 L 160.200 324.600 160.304 345.700 " stroke="none" fill="#050505" fill-rule="evenodd"></path><path id="path3" d="M88.600 285.074 C 65.989 286.542,51.245 312.369,60.985 333.450 C 67.429 347.397,78.288 353.591,96.305 353.597 L 104.810 353.600 104.705 339.300 L 104.600 325.000 99.714 324.792 C 92.013 324.464,88.968 319.859,93.472 315.354 L 94.827 314.000 137.852 314.000 C 186.107 314.000,182.229 313.763,183.806 316.812 C 186.164 321.371,182.930 324.800,176.272 324.800 C 174.179 324.800,172.181 324.909,171.833 325.043 C 171.272 325.258,171.200 326.902,171.200 339.443 L 171.200 353.600 246.442 353.600 C 313.867 353.600,321.940 353.534,324.142 352.965 C 333.923 350.438,340.876 342.280,342.012 332.000 C 342.392 328.555,342.524 286.388,342.157 285.433 C 341.937 284.858,97.260 284.512,88.600 285.074 " stroke="none" fill="#fadfac" fill-rule="evenodd"></path><path id="path4" d="M130.800 152.000 L 130.800 273.200 236.400 273.200 L 342.000 273.200 342.000 162.224 C 342.000 88.671,341.865 51.164,341.600 51.000 C 341.380 50.864,341.200 50.144,341.200 49.400 C 341.200 48.656,341.020 47.936,340.800 47.800 C 340.580 47.664,340.400 47.113,340.400 46.576 C 340.400 46.039,340.220 45.600,340.000 45.600 C 339.780 45.600,339.600 45.240,339.600 44.800 C 339.600 44.360,339.420 44.000,339.200 44.000 C 338.980 44.000,338.800 43.640,338.800 43.200 C 338.800 42.760,338.659 42.400,338.486 42.400 C 338.314 42.400,337.835 41.829,337.423 41.132 C 336.729 39.957,335.097 38.297,332.240 35.861 C 330.753 34.592,326.511 32.400,325.544 32.400 C 325.135 32.400,324.800 32.220,324.800 32.000 C 324.800 31.780,323.900 31.600,322.800 31.600 C 321.700 31.600,320.800 31.420,320.800 31.200 C 320.800 30.934,288.867 30.800,225.800 30.800 L 130.800 30.800 130.800 152.000 M249.000 77.207 C 253.063 78.002,257.564 79.155,258.495 79.639 C 258.877 79.838,259.554 80.000,260.000 80.000 C 260.446 80.000,261.123 80.159,261.505 80.353 C 262.271 80.743,264.155 81.542,265.400 82.005 C 267.089 82.633,271.806 85.011,271.933 85.298 C 272.007 85.464,272.412 85.600,272.833 85.600 C 273.255 85.600,273.600 85.780,273.600 86.000 C 273.600 86.220,273.836 86.400,274.125 86.400 C 274.413 86.400,275.036 86.760,275.508 87.200 C 275.980 87.640,276.604 88.000,276.895 88.000 C 277.186 88.000,277.683 88.360,278.000 88.800 C 278.317 89.240,278.857 89.600,279.200 89.600 C 279.543 89.600,280.083 89.960,280.400 90.400 C 280.717 90.840,281.207 91.200,281.488 91.200 C 281.770 91.200,282.000 91.380,282.000 91.600 C 282.000 91.820,282.204 92.000,282.453 92.000 C 282.702 92.000,283.197 92.316,283.553 92.702 C 283.909 93.088,285.010 94.064,286.000 94.872 C 288.775 97.137,292.130 100.451,293.215 102.000 C 293.755 102.770,294.872 104.097,295.698 104.948 C 296.524 105.800,297.200 106.679,297.200 106.901 C 297.200 107.124,297.516 107.597,297.903 107.953 C 298.289 108.309,298.860 109.095,299.170 109.700 C 299.481 110.305,299.885 110.800,300.068 110.800 C 300.250 110.800,300.400 110.993,300.400 111.228 C 300.400 111.463,300.908 112.408,301.529 113.328 C 302.884 115.334,306.096 121.964,306.796 124.200 C 307.071 125.080,307.455 125.971,307.648 126.180 C 307.842 126.389,308.000 127.064,308.000 127.680 C 308.000 128.296,308.180 128.800,308.400 128.800 C 308.620 128.800,308.800 129.329,308.800 129.976 C 308.800 130.623,308.980 131.264,309.200 131.400 C 309.420 131.536,309.600 132.256,309.600 133.000 C 309.600 133.744,309.780 134.464,310.000 134.600 C 310.220 134.736,310.400 135.546,310.400 136.400 C 310.400 137.254,310.580 138.064,310.800 138.200 C 311.020 138.336,311.200 139.607,311.200 141.024 C 311.200 142.475,311.375 143.600,311.600 143.600 C 311.854 143.600,312.000 146.659,312.000 151.976 C 312.000 157.129,311.846 160.448,311.600 160.600 C 311.380 160.736,311.200 162.007,311.200 163.424 C 311.200 164.875,311.025 166.000,310.800 166.000 C 310.580 166.000,310.400 166.799,310.400 167.776 C 310.400 168.753,310.220 169.664,310.000 169.800 C 309.780 169.936,309.600 170.667,309.600 171.424 C 309.600 172.181,309.420 172.800,309.200 172.800 C 308.980 172.800,308.800 173.340,308.800 174.000 C 308.800 174.660,308.620 175.200,308.400 175.200 C 308.180 175.200,308.000 175.608,308.000 176.106 C 308.000 178.096,303.132 189.273,301.599 190.800 C 301.489 190.910,301.144 191.495,300.832 192.100 C 300.520 192.705,300.115 193.200,299.932 193.200 C 299.750 193.200,299.600 193.520,299.600 193.912 C 299.600 194.303,299.240 194.883,298.800 195.200 C 298.360 195.517,298.000 195.980,298.000 196.229 C 298.000 196.478,297.460 197.246,296.800 197.937 C 296.140 198.628,295.600 199.282,295.600 199.392 C 295.600 200.058,286.596 209.235,284.200 211.010 C 283.320 211.662,282.510 212.295,282.400 212.417 C 282.290 212.539,281.570 213.074,280.800 213.606 C 280.030 214.138,279.162 214.805,278.871 215.087 C 278.581 215.369,278.189 215.600,278.000 215.600 C 277.811 215.600,277.414 215.825,277.116 216.100 C 276.374 216.786,274.349 218.002,273.500 218.271 C 273.115 218.393,272.800 218.652,272.800 218.847 C 272.800 219.041,272.440 219.200,272.000 219.200 C 271.560 219.200,271.200 219.336,271.200 219.502 C 271.200 219.669,270.705 220.020,270.100 220.283 C 265.305 222.365,262.117 223.600,261.536 223.600 C 261.157 223.600,260.736 223.780,260.600 224.000 C 260.464 224.220,259.834 224.400,259.200 224.400 C 258.566 224.400,257.936 224.580,257.800 224.800 C 257.664 225.020,257.034 225.200,256.400 225.200 C 255.766 225.200,255.136 225.380,255.000 225.600 C 254.864 225.820,254.043 226.000,253.176 226.000 C 252.309 226.000,251.600 226.180,251.600 226.400 C 251.600 226.620,250.621 226.800,249.424 226.800 C 248.227 226.800,247.136 226.980,247.000 227.200 C 246.845 227.450,242.870 227.600,236.400 227.600 C 229.930 227.600,225.955 227.450,225.800 227.200 C 225.664 226.980,224.584 226.800,223.400 226.800 C 222.216 226.800,221.136 226.620,221.000 226.400 C 220.864 226.180,220.043 226.000,219.176 226.000 C 218.309 226.000,217.600 225.820,217.600 225.600 C 217.600 225.380,217.058 225.200,216.395 225.200 C 215.732 225.200,214.877 225.037,214.495 224.837 C 214.113 224.637,212.900 224.195,211.800 223.855 C 208.371 222.793,206.598 222.088,203.143 220.413 C 198.542 218.182,193.600 215.231,193.600 214.714 C 193.600 214.541,193.357 214.400,193.059 214.400 C 192.762 214.400,191.954 213.860,191.263 213.200 C 190.572 212.540,189.850 212.000,189.657 212.000 C 189.465 212.000,188.315 211.055,187.101 209.900 C 185.888 208.745,184.109 207.067,183.148 206.170 C 180.556 203.754,177.524 200.400,176.395 198.703 C 175.848 197.879,175.265 197.204,175.100 197.203 C 174.935 197.201,174.800 196.975,174.799 196.700 C 174.799 196.425,174.259 195.570,173.600 194.800 C 172.941 194.030,172.401 193.175,172.401 192.900 C 172.400 192.625,172.241 192.400,172.047 192.400 C 171.852 192.400,171.593 192.085,171.471 191.700 C 171.249 190.999,169.983 188.776,169.592 188.400 C 169.354 188.172,166.880 183.057,166.351 181.700 C 165.613 179.808,165.094 178.575,164.753 177.905 C 164.559 177.523,164.400 176.859,164.400 176.429 C 164.400 175.999,164.220 175.536,164.000 175.400 C 163.780 175.264,163.600 174.634,163.600 174.000 C 163.600 173.366,163.420 172.736,163.200 172.600 C 162.980 172.464,162.800 171.859,162.800 171.256 C 162.800 170.653,162.638 169.989,162.441 169.780 C 162.244 169.571,161.980 168.680,161.855 167.800 C 161.731 166.920,161.400 164.670,161.121 162.800 C 160.842 160.930,160.616 156.070,160.620 152.000 C 160.626 145.127,160.901 142.023,162.002 136.400 C 162.239 135.190,162.536 133.613,162.661 132.896 C 162.786 132.179,163.049 131.494,163.244 131.373 C 163.440 131.252,163.600 130.623,163.600 129.976 C 163.600 129.329,163.780 128.800,164.000 128.800 C 164.220 128.800,164.400 128.361,164.400 127.824 C 164.400 127.287,164.544 126.758,164.721 126.649 C 164.897 126.540,165.290 125.539,165.593 124.425 C 165.896 123.311,166.292 122.400,166.472 122.400 C 166.653 122.400,166.800 122.040,166.800 121.600 C 166.800 121.160,166.980 120.800,167.200 120.800 C 167.420 120.800,167.600 120.555,167.600 120.256 C 167.600 119.752,169.943 114.848,170.398 114.400 C 170.510 114.290,170.855 113.708,171.165 113.107 C 171.474 112.505,172.059 111.658,172.464 111.223 C 172.869 110.789,173.200 110.291,173.201 110.117 C 173.201 109.943,173.741 109.170,174.400 108.400 C 175.059 107.630,175.599 106.790,175.599 106.533 C 175.600 106.277,175.735 106.007,175.900 105.933 C 176.065 105.860,176.914 104.900,177.786 103.800 C 180.348 100.568,184.420 96.446,187.000 94.473 C 188.320 93.463,189.691 92.314,190.047 91.918 C 190.403 91.523,190.948 91.200,191.259 91.200 C 191.569 91.200,192.083 90.840,192.400 90.400 C 192.717 89.960,193.207 89.600,193.488 89.600 C 193.770 89.600,194.000 89.420,194.000 89.200 C 194.000 88.980,194.270 88.800,194.600 88.800 C 194.930 88.800,195.200 88.620,195.200 88.400 C 195.200 88.180,195.470 88.000,195.800 88.000 C 196.130 88.000,196.400 87.820,196.400 87.600 C 196.400 87.380,196.670 87.200,197.000 87.200 C 197.330 87.200,197.601 87.065,197.601 86.900 C 197.602 86.735,198.592 86.150,199.800 85.600 C 201.008 85.050,201.998 84.465,201.999 84.300 C 201.999 84.135,202.360 84.000,202.800 84.000 C 203.240 84.000,203.600 83.820,203.600 83.600 C 203.600 83.380,203.836 83.200,204.125 83.200 C 204.414 83.200,205.395 82.840,206.306 82.400 C 207.216 81.960,208.240 81.600,208.581 81.600 C 208.921 81.600,209.200 81.420,209.200 81.200 C 209.200 80.980,209.614 80.800,210.120 80.800 C 210.626 80.800,211.211 80.651,211.420 80.470 C 211.629 80.288,212.610 79.907,213.600 79.623 C 214.590 79.339,215.850 78.970,216.400 78.803 C 218.515 78.160,223.040 77.327,228.200 76.629 C 230.606 76.303,246.666 76.749,249.000 77.207 " stroke="none" fill="#9487d8" fill-rule="evenodd"></path><path id="path5" d="M84.000 31.230 C 82.350 31.651,80.640 32.154,80.200 32.347 C 68.483 37.492,61.592 45.206,58.355 56.800 L 57.406 60.200 57.294 174.891 C 57.201 270.326,57.272 289.547,57.716 289.377 C 58.009 289.264,59.318 288.158,60.625 286.918 C 71.613 276.490,78.378 274.417,102.600 274.053 L 119.400 273.800 119.400 152.200 L 119.400 30.600 103.200 30.532 C 88.415 30.470,86.738 30.531,84.000 31.230 M129.867 30.667 C 129.534 31.000,129.510 272.499,129.843 273.367 C 130.063 273.942,139.810 274.000,236.235 274.000 L 342.385 274.000 342.605 273.100 C 342.726 272.605,342.775 222.250,342.713 161.200 L 342.600 50.200 341.688 47.693 C 338.489 38.899,332.397 33.175,323.754 30.844 C 321.933 30.353,130.356 30.178,129.867 30.667 M118.800 151.977 L 118.800 273.155 104.100 273.348 C 89.853 273.535,85.366 273.822,81.600 274.788 C 80.610 275.042,79.303 275.349,78.695 275.471 C 78.087 275.593,77.492 275.851,77.371 276.046 C 77.251 276.241,76.848 276.402,76.476 276.405 C 73.934 276.423,63.981 282.730,59.899 286.909 L 57.997 288.856 58.139 174.328 C 58.274 66.047,58.360 56.752,59.241 55.820 C 59.438 55.611,59.600 55.114,59.600 54.715 C 59.600 54.316,59.764 53.677,59.965 53.295 C 60.166 52.913,60.794 51.596,61.361 50.369 C 64.558 43.447,70.490 37.589,77.724 34.209 C 81.496 32.446,82.253 32.207,85.937 31.607 C 87.113 31.415,88.178 31.156,88.304 31.029 C 88.430 30.903,95.343 30.800,103.667 30.800 L 118.800 30.800 118.800 151.977 M323.200 31.368 C 332.609 33.676,338.376 39.291,341.545 49.228 C 341.881 50.282,342.000 79.873,342.000 162.129 L 342.000 273.601 236.300 273.501 L 130.600 273.400 130.499 152.100 L 130.399 30.800 225.699 30.814 C 304.284 30.826,321.386 30.923,323.200 31.368 M232.356 76.569 C 232.223 76.707,230.333 76.987,228.156 77.191 C 216.114 78.319,204.372 82.599,193.824 89.706 C 192.491 90.605,191.310 91.444,191.200 91.572 C 191.090 91.700,190.370 92.278,189.600 92.857 C 185.917 95.626,180.550 100.956,177.584 104.790 C 176.823 105.775,175.981 106.816,175.714 107.105 C 175.447 107.393,174.913 108.163,174.528 108.815 C 174.143 109.467,173.686 110.000,173.514 110.000 C 173.341 110.000,173.200 110.193,173.200 110.428 C 173.200 110.663,172.640 111.670,171.956 112.664 C 168.805 117.243,163.110 130.807,163.237 133.428 C 163.258 133.853,163.627 133.030,164.058 131.600 C 173.898 98.941,202.873 77.179,236.484 77.203 C 288.489 77.241,324.729 129.607,306.518 178.400 C 304.901 182.730,302.040 188.607,300.348 191.072 C 299.717 191.992,299.200 192.857,299.200 192.996 C 299.200 193.134,298.693 193.911,298.073 194.723 C 297.453 195.536,296.297 197.067,295.503 198.127 C 265.385 238.347,202.386 236.179,174.085 193.947 C 172.190 191.119,171.668 190.262,169.671 186.700 C 166.435 180.926,163.258 170.873,161.866 162.000 C 161.775 161.421,161.686 161.713,161.654 162.694 C 161.604 164.254,161.789 165.335,162.868 169.800 C 165.174 179.347,170.861 191.297,176.334 198.098 C 185.661 209.688,195.528 217.101,208.800 222.487 C 209.350 222.711,210.113 223.052,210.495 223.247 C 210.877 223.441,211.541 223.600,211.971 223.600 C 212.401 223.600,212.851 223.759,212.971 223.954 C 213.092 224.149,213.687 224.407,214.295 224.529 C 214.903 224.651,216.210 224.952,217.200 225.197 C 224.670 227.050,227.266 227.343,236.200 227.338 C 244.113 227.334,247.476 227.053,252.200 226.001 C 253.300 225.756,254.787 225.456,255.504 225.334 C 256.221 225.212,256.906 224.951,257.027 224.756 C 257.148 224.560,257.676 224.400,258.200 224.400 C 258.724 224.400,259.264 224.220,259.400 224.000 C 259.536 223.780,260.076 223.600,260.600 223.600 C 261.124 223.600,261.664 223.420,261.800 223.200 C 261.936 222.980,262.399 222.800,262.829 222.800 C 263.259 222.800,263.923 222.629,264.305 222.420 C 264.687 222.211,266.620 221.277,268.600 220.345 C 285.625 212.331,299.978 197.071,306.356 180.200 C 306.856 178.880,307.430 177.487,307.632 177.105 C 307.834 176.723,308.000 176.059,308.000 175.629 C 308.000 175.199,308.180 174.736,308.400 174.600 C 308.620 174.464,308.800 173.834,308.800 173.200 C 308.800 172.566,308.960 171.948,309.156 171.827 C 309.351 171.706,309.614 171.021,309.739 170.304 C 309.864 169.587,310.155 168.010,310.385 166.800 C 312.488 155.724,312.220 144.485,309.600 134.000 C 309.353 133.010,309.051 131.703,308.929 131.095 C 308.807 130.487,308.549 129.892,308.354 129.771 C 308.159 129.651,308.000 129.124,308.000 128.600 C 308.000 128.076,307.820 127.536,307.600 127.400 C 307.380 127.264,307.200 126.801,307.200 126.371 C 307.200 125.941,307.035 125.277,306.834 124.895 C 306.632 124.513,306.182 123.525,305.834 122.700 C 301.591 112.657,294.424 102.681,286.553 95.865 C 283.111 92.884,282.593 92.465,280.800 91.205 C 280.030 90.664,279.051 89.902,278.625 89.511 C 278.198 89.120,277.686 88.800,277.486 88.800 C 277.287 88.800,276.646 88.461,276.062 88.047 C 270.011 83.755,258.850 79.429,249.600 77.790 C 245.069 76.988,232.792 76.118,232.356 76.569 M230.305 87.883 C 230.802 87.979,231.522 87.975,231.905 87.875 C 232.287 87.775,231.880 87.696,231.000 87.701 C 230.120 87.705,229.807 87.787,230.305 87.883 M240.900 87.876 C 241.285 87.976,241.915 87.976,242.300 87.876 C 242.685 87.775,242.370 87.693,241.600 87.693 C 240.830 87.693,240.515 87.775,240.900 87.876 M227.300 88.276 C 227.685 88.376,228.315 88.376,228.700 88.276 C 229.085 88.175,228.770 88.093,228.000 88.093 C 227.230 88.093,226.915 88.175,227.300 88.276 M243.905 88.283 C 244.402 88.379,245.122 88.375,245.505 88.275 C 245.887 88.175,245.480 88.096,244.600 88.101 C 243.720 88.105,243.407 88.187,243.905 88.283 M277.600 102.525 C 277.600 102.594,278.185 103.179,278.900 103.825 L 280.200 105.000 279.025 103.700 C 277.930 102.488,277.600 102.216,277.600 102.525 M190.189 106.900 L 187.400 109.800 190.300 107.011 C 192.994 104.420,193.383 104.000,193.089 104.000 C 193.028 104.000,191.723 105.305,190.189 106.900 M285.349 110.516 C 286.420 111.772,287.382 112.800,287.486 112.800 C 287.754 112.800,284.423 108.861,283.864 108.517 C 283.609 108.361,284.277 109.260,285.349 110.516 M186.559 110.900 C 184.807 112.921,184.287 113.600,184.490 113.600 C 184.607 113.600,185.367 112.790,186.179 111.800 C 187.681 109.966,187.979 109.263,186.559 110.900 M208.600 134.019 C 208.042 134.271,208.285 134.307,209.400 134.138 C 210.280 134.004,211.075 133.828,211.167 133.747 C 211.510 133.444,209.368 133.671,208.600 134.019 M214.033 133.747 C 214.125 133.828,214.920 134.004,215.800 134.138 C 216.915 134.307,217.158 134.271,216.600 134.019 C 215.832 133.671,213.690 133.444,214.033 133.747 M261.633 133.747 C 261.725 133.828,262.520 134.004,263.400 134.138 C 264.515 134.307,264.758 134.271,264.200 134.019 C 263.432 133.671,261.290 133.444,261.633 133.747 M162.654 135.253 C 161.822 139.524,161.587 140.804,161.376 142.200 C 160.966 144.906,160.726 158.947,161.073 159.877 C 161.262 160.384,161.416 157.260,161.438 152.477 C 161.467 145.840,161.646 143.256,162.341 139.437 C 162.818 136.818,163.125 134.592,163.023 134.490 C 162.922 134.389,162.756 134.732,162.654 135.253 M272.800 139.000 C 273.995 140.210,275.063 141.200,275.173 141.200 C 275.283 141.200,274.395 140.210,273.200 139.000 C 272.005 137.790,270.937 136.800,270.827 136.800 C 270.717 136.800,271.605 137.790,272.800 139.000 M198.981 139.300 L 197.400 141.000 199.100 139.419 C 200.681 137.948,200.984 137.600,200.681 137.600 C 200.616 137.600,199.851 138.365,198.981 139.300 M246.581 139.300 L 245.000 141.000 246.700 139.419 C 248.281 137.948,248.584 137.600,248.281 137.600 C 248.216 137.600,247.451 138.365,246.581 139.300 M299.268 138.800 C 299.288 139.839,299.918 141.546,299.932 140.600 C 299.938 140.160,299.789 139.440,299.600 139.000 C 299.389 138.510,299.261 138.432,299.268 138.800 M195.781 143.637 C 195.429 144.318,195.212 144.945,195.299 145.032 C 195.386 145.119,195.756 144.562,196.122 143.795 C 196.944 142.070,196.659 141.938,195.781 143.637 M300.285 145.200 C 300.407 146.630,300.572 147.875,300.653 147.967 C 300.920 148.270,300.711 145.022,300.385 143.800 C 300.182 143.044,300.146 143.562,300.285 145.200 M211.905 144.683 C 212.402 144.779,213.122 144.775,213.505 144.675 C 213.887 144.575,213.480 144.496,212.600 144.501 C 211.720 144.505,211.407 144.587,211.905 144.683 M259.505 144.683 C 260.002 144.779,260.722 144.775,261.105 144.675 C 261.487 144.575,261.080 144.496,260.200 144.501 C 259.320 144.505,259.007 144.587,259.505 144.683 M229.714 146.600 C 229.717 147.700,229.795 148.103,229.887 147.495 C 229.979 146.886,229.977 145.986,229.882 145.495 C 229.787 145.003,229.711 145.500,229.714 146.600 M277.314 146.600 C 277.317 147.700,277.395 148.103,277.487 147.495 C 277.579 146.886,277.577 145.986,277.482 145.495 C 277.387 145.003,277.311 145.500,277.314 146.600 M216.400 145.800 C 216.950 146.114,217.580 146.372,217.800 146.372 C 218.020 146.372,217.750 146.114,217.200 145.800 C 216.650 145.486,216.020 145.228,215.800 145.228 C 215.580 145.228,215.850 145.486,216.400 145.800 M242.493 146.800 C 242.493 147.570,242.575 147.885,242.676 147.500 C 242.776 147.115,242.776 146.485,242.676 146.100 C 242.575 145.715,242.493 146.030,242.493 146.800 M171.754 152.000 C 171.754 154.750,171.818 155.875,171.896 154.500 C 171.974 153.125,171.974 150.875,171.896 149.500 C 171.818 148.125,171.754 149.250,171.754 152.000 M242.801 148.669 C 242.799 149.328,244.774 151.603,245.336 151.588 C 245.591 151.581,245.473 151.385,245.073 151.153 C 244.673 150.920,243.998 150.161,243.574 149.465 C 243.150 148.769,242.802 148.411,242.801 148.669 M228.175 150.500 L 227.000 151.800 228.300 150.625 C 229.015 149.979,229.600 149.394,229.600 149.325 C 229.600 149.016,229.270 149.288,228.175 150.500 M251.078 150.613 C 250.460 151.156,250.114 151.600,250.308 151.600 C 250.502 151.600,251.083 151.150,251.600 150.600 C 252.795 149.328,252.531 149.334,251.078 150.613 M199.336 152.108 C 199.993 152.329,200.797 152.345,201.244 152.145 C 201.820 151.888,201.530 151.790,200.109 151.763 C 198.391 151.729,198.314 151.764,199.336 152.108 M223.736 152.108 C 224.393 152.329,225.197 152.345,225.644 152.145 C 226.220 151.888,225.930 151.790,224.509 151.763 C 222.791 151.729,222.714 151.764,223.736 152.108 M246.799 152.078 C 247.321 152.271,248.187 152.271,248.766 152.078 C 249.625 151.792,249.468 151.733,247.834 151.733 C 246.279 151.733,246.062 151.805,246.799 152.078 M272.400 152.000 C 271.576 152.264,271.541 152.326,272.200 152.354 C 272.640 152.373,273.270 152.213,273.600 152.000 C 274.301 151.547,273.814 151.547,272.400 152.000 M300.266 158.368 C 300.119 159.778,300.074 161.007,300.166 161.100 C 300.414 161.347,300.915 156.946,300.710 156.330 C 300.613 156.040,300.414 156.957,300.266 158.368 M172.493 162.400 C 172.493 163.170,172.575 163.485,172.676 163.100 C 172.776 162.715,172.776 162.085,172.676 161.700 C 172.575 161.315,172.493 161.630,172.493 162.400 M299.400 164.400 C 299.248 165.091,299.207 165.741,299.309 165.842 C 299.411 165.944,299.609 165.453,299.750 164.750 C 300.083 163.083,299.760 162.760,299.400 164.400 M172.868 164.800 C 172.888 165.839,173.518 167.546,173.532 166.600 C 173.538 166.160,173.389 165.440,173.200 165.000 C 172.989 164.510,172.861 164.432,172.868 164.800 M209.800 166.652 C 210.020 166.845,210.920 167.632,211.799 168.401 L 213.398 169.800 212.199 168.466 C 211.540 167.732,210.640 166.945,210.200 166.717 C 209.760 166.489,209.580 166.460,209.800 166.652 M202.955 169.012 C 202.590 169.569,202.364 170.098,202.453 170.187 C 202.542 170.276,202.918 169.820,203.289 169.174 C 204.114 167.736,203.869 167.617,202.955 169.012 M269.800 171.400 C 269.800 172.348,269.932 172.916,270.094 172.662 C 270.256 172.408,270.388 171.840,270.388 171.400 C 270.388 170.960,270.256 170.392,270.094 170.138 C 269.932 169.884,269.800 170.452,269.800 171.400 M215.200 172.200 C 216.395 173.410,217.463 174.400,217.573 174.400 C 217.683 174.400,216.795 173.410,215.600 172.200 C 214.405 170.990,213.337 170.000,213.227 170.000 C 213.117 170.000,214.005 170.990,215.200 172.200 M176.400 176.484 C 176.400 176.916,177.615 179.600,177.811 179.600 C 177.921 179.600,177.733 178.934,177.393 178.121 C 176.793 176.686,176.400 176.038,176.400 176.484 M264.189 180.100 L 261.400 183.000 264.300 180.211 C 265.895 178.677,267.200 177.372,267.200 177.311 C 267.200 177.017,266.780 177.406,264.189 180.100 M206.600 178.761 C 207.518 179.827,212.000 183.766,212.000 183.507 C 212.000 183.412,210.605 182.097,208.900 180.584 C 207.195 179.070,206.160 178.250,206.600 178.761 M236.400 180.800 L 233.000 181.051 236.200 181.078 C 237.960 181.093,239.940 180.968,240.600 180.800 C 242.069 180.426,241.463 180.426,236.400 180.800 M259.600 184.049 C 258.206 185.271,258.205 185.272,259.488 184.419 C 260.196 183.948,260.882 183.391,261.012 183.181 C 261.397 182.557,261.077 182.754,259.600 184.049 M180.200 184.400 C 180.541 185.060,180.911 185.600,181.021 185.600 C 181.131 185.600,180.941 185.060,180.600 184.400 C 180.259 183.740,179.889 183.200,179.779 183.200 C 179.669 183.200,179.859 183.740,180.200 184.400 M292.153 184.100 C 290.776 186.436,290.686 186.635,291.387 185.800 C 292.200 184.832,292.900 183.600,292.638 183.600 C 292.533 183.600,292.315 183.825,292.153 184.100 M248.400 189.600 C 247.576 189.864,247.541 189.926,248.200 189.954 C 248.640 189.973,249.270 189.813,249.600 189.600 C 250.301 189.147,249.814 189.147,248.400 189.600 M184.391 190.788 C 184.857 191.441,185.442 192.102,185.691 192.256 C 185.941 192.411,185.641 191.876,185.025 191.068 C 183.688 189.315,183.184 189.092,184.391 190.788 M231.300 191.487 C 231.905 191.578,232.895 191.578,233.500 191.487 C 234.105 191.395,233.610 191.320,232.400 191.320 C 231.190 191.320,230.695 191.395,231.300 191.487 M239.305 191.487 C 239.914 191.579,240.814 191.577,241.305 191.482 C 241.797 191.387,241.300 191.311,240.200 191.314 C 239.100 191.317,238.697 191.395,239.305 191.487 M186.000 192.925 C 186.000 192.994,186.585 193.579,187.300 194.225 L 188.600 195.400 187.425 194.100 C 186.330 192.888,186.000 192.616,186.000 192.925 M281.389 198.100 L 278.600 201.000 281.500 198.211 C 283.095 196.677,284.400 195.372,284.400 195.311 C 284.400 195.017,283.980 195.406,281.389 198.100 M190.400 197.800 C 191.595 199.010,192.663 200.000,192.773 200.000 C 192.883 200.000,191.995 199.010,190.800 197.800 C 189.605 196.590,188.537 195.600,188.427 195.600 C 188.317 195.600,189.205 196.590,190.400 197.800 M193.200 200.125 C 193.200 200.194,193.785 200.779,194.500 201.425 L 195.800 202.600 194.625 201.300 C 193.530 200.088,193.200 199.816,193.200 200.125 M276.400 202.468 C 275.352 203.420,275.101 203.765,275.800 203.295 C 276.904 202.551,278.738 200.777,278.362 200.817 C 278.273 200.826,277.390 201.570,276.400 202.468 M196.144 202.709 C 196.460 203.221,198.800 204.953,198.800 204.675 C 198.800 204.576,198.139 203.991,197.332 203.375 C 196.524 202.759,195.989 202.459,196.144 202.709 M202.200 207.007 C 202.640 207.366,203.360 207.835,203.800 208.051 L 204.600 208.444 203.800 207.793 C 203.360 207.434,202.640 206.965,202.200 206.749 L 201.400 206.356 202.200 207.007 M267.496 208.358 C 265.060 209.787,264.519 210.344,266.600 209.280 C 268.145 208.491,270.010 207.218,269.600 207.233 C 269.490 207.237,268.543 207.743,267.496 208.358 M221.800 215.200 C 222.240 215.389,222.870 215.544,223.200 215.544 C 223.578 215.544,223.504 215.417,223.000 215.200 C 222.560 215.011,221.930 214.856,221.600 214.856 C 221.222 214.856,221.296 214.983,221.800 215.200 M249.400 215.200 C 248.896 215.417,248.822 215.544,249.200 215.544 C 249.530 215.544,250.160 215.389,250.600 215.200 C 251.104 214.983,251.178 214.856,250.800 214.856 C 250.470 214.856,249.840 215.011,249.400 215.200 M226.000 216.000 C 226.550 216.176,227.450 216.317,228.000 216.313 C 228.898 216.306,228.878 216.274,227.800 216.000 C 226.108 215.569,224.656 215.569,226.000 216.000 M244.600 216.000 C 243.522 216.274,243.502 216.306,244.400 216.313 C 244.950 216.317,245.850 216.176,246.400 216.000 C 247.744 215.569,246.292 215.569,244.600 216.000 M234.100 216.696 C 235.365 216.775,237.435 216.775,238.700 216.696 C 239.965 216.616,238.930 216.551,236.400 216.551 C 233.870 216.551,232.835 216.616,234.100 216.696 M85.600 285.008 C 77.644 286.642,70.423 290.839,65.776 296.530 C 64.909 297.592,64.020 298.672,63.800 298.930 C 62.807 300.096,60.885 303.611,60.044 305.800 C 59.537 307.120,58.982 308.560,58.810 309.000 C 56.991 313.664,57.015 328.297,58.844 329.427 C 59.040 329.548,59.200 329.902,59.200 330.214 C 59.200 332.492,63.721 339.805,67.545 343.713 C 72.394 348.667,77.419 351.506,84.800 353.460 C 87.203 354.096,102.293 354.714,104.135 354.252 L 105.210 353.982 105.105 339.291 L 105.000 324.600 100.153 324.393 C 95.195 324.182,94.620 324.004,93.109 322.217 C 92.203 321.146,92.175 317.915,93.059 316.565 C 94.547 314.295,92.340 314.400,138.366 314.400 L 180.772 314.400 182.142 315.603 C 186.719 319.621,183.568 324.106,176.000 324.344 C 173.151 324.434,171.288 324.662,171.106 324.945 C 170.510 325.868,170.747 353.458,171.355 353.963 C 171.771 354.308,190.827 354.395,247.255 354.309 L 322.600 354.195 325.200 353.261 C 332.665 350.579,337.739 346.096,340.663 339.600 C 342.600 335.296,342.600 335.296,342.600 309.200 L 342.600 284.600 215.400 284.537 C 110.716 284.486,87.740 284.569,85.600 285.008 M342.157 285.433 C 342.524 286.388,342.392 328.555,342.012 332.000 C 340.876 342.280,333.923 350.438,324.142 352.965 C 321.940 353.534,313.867 353.600,246.442 353.600 L 171.200 353.600 171.200 339.443 C 171.200 326.902,171.272 325.258,171.833 325.043 C 172.181 324.909,174.179 324.800,176.272 324.800 C 182.930 324.800,186.164 321.371,183.806 316.812 C 182.229 313.763,186.107 314.000,137.852 314.000 L 94.827 314.000 93.472 315.354 C 88.968 319.859,92.013 324.464,99.714 324.792 L 104.600 325.000 104.705 339.300 L 104.810 353.600 96.305 353.597 C 78.288 353.591,67.429 347.397,60.985 333.450 C 51.245 312.369,65.989 286.542,88.600 285.074 C 97.260 284.512,341.937 284.858,342.157 285.433 M115.870 324.663 C 115.722 324.812,115.600 334.373,115.600 345.910 L 115.600 366.887 116.644 366.625 C 117.218 366.481,118.523 365.990,119.544 365.535 C 127.548 361.964,136.814 358.400,138.081 358.404 C 138.807 358.406,141.380 359.226,143.800 360.226 C 146.220 361.226,150.000 362.771,152.200 363.658 C 154.400 364.546,156.955 365.616,157.878 366.036 C 158.801 366.456,159.748 366.800,159.982 366.800 C 160.278 366.800,160.376 360.407,160.304 345.700 L 160.200 324.600 138.170 324.497 C 126.054 324.440,116.019 324.515,115.870 324.663 M160.000 345.600 C 160.000 363.467,159.925 366.000,159.400 366.000 C 159.070 366.000,158.800 365.820,158.800 365.600 C 158.800 365.380,158.528 365.200,158.195 365.200 C 157.862 365.200,157.277 365.041,156.895 364.847 C 156.513 364.652,155.750 364.311,155.200 364.087 C 154.650 363.864,153.529 363.387,152.709 363.026 C 151.888 362.666,149.998 361.913,148.509 361.354 C 145.586 360.256,143.410 359.349,142.305 358.766 C 141.923 358.565,141.248 358.400,140.805 358.400 C 140.362 358.400,140.000 358.220,140.000 358.000 C 140.000 357.780,139.100 357.600,138.000 357.600 C 136.900 357.600,136.000 357.780,136.000 358.000 C 136.000 358.220,135.550 358.400,135.000 358.400 C 134.450 358.400,134.000 358.580,134.000 358.800 C 134.000 359.020,133.774 359.200,133.497 359.200 C 133.048 359.200,127.208 361.373,124.900 362.400 C 124.405 362.620,123.595 362.957,123.100 363.149 C 121.998 363.577,118.455 365.157,117.505 365.644 C 117.123 365.840,116.628 366.000,116.405 366.000 C 116.137 366.000,116.000 359.115,116.000 345.600 L 116.000 325.200 138.000 325.200 L 160.000 325.200 160.000 345.600 " stroke="none" fill="#746a86" fill-rule="evenodd"></path></g></svg>